<svg width="179" height="47" viewBox="0 0 179 47" fill="none" xmlns="http://www.w3.org/2000/svg">
<path d="M0.272 2.2H9.008C12.528 2.2 15.504 2.728 17.936 3.784C20.368 4.84 22.336 6.232 23.84 7.96C25.376 9.656 26.48 11.576 27.152 13.72C27.856 15.832 28.208 17.944 28.208 20.056C28.208 22.648 27.744 25 26.816 27.112C25.888 29.192 24.624 30.968 23.024 32.44C21.424 33.912 19.568 35.048 17.456 35.848C15.344 36.616 13.104 37 10.736 37H0.272V2.2ZM9.968 32.008C11.824 32.008 13.536 31.736 15.104 31.192C16.704 30.648 18.08 29.864 19.232 28.84C20.416 27.784 21.328 26.504 21.968 25C22.64 23.464 22.976 21.704 22.976 19.72C22.976 17.608 22.608 15.768 21.872 14.2C21.136 12.632 20.176 11.336 18.992 10.312C17.808 9.256 16.464 8.488 14.96 8.008C13.488 7.496 11.984 7.24 10.448 7.24H5.504V32.008H9.968ZM49.3408 34.648C48.3808 35.512 47.2128 36.2 45.8368 36.712C44.4608 37.224 43.0528 37.48 41.6128 37.48C40.1408 37.48 38.7488 37.208 37.4368 36.664C36.1568 36.088 35.0368 35.336 34.0768 34.408C33.1168 33.448 32.3487 32.328 31.7728 31.048C31.2288 29.768 30.9568 28.408 30.9568 26.968C30.9568 25.528 31.2288 24.168 31.7728 22.888C32.3487 21.608 33.1168 20.488 34.0768 19.528C35.0368 18.568 36.1408 17.816 37.3888 17.272C38.6688 16.696 40.0288 16.408 41.4688 16.408C43.7408 16.408 45.7088 17.096 47.3728 18.472C49.0688 19.816 50.2848 21.592 51.0208 23.8C50.0288 24.152 48.8928 24.584 47.6128 25.096C46.3328 25.608 45.0048 26.152 43.6288 26.728C42.2528 27.272 40.8768 27.816 39.5008 28.36C38.1248 28.904 36.8448 29.4 35.6608 29.848C36.2048 30.936 36.9888 31.816 38.0128 32.488C39.0688 33.128 40.2368 33.448 41.5168 33.448C42.3808 33.448 43.2448 33.288 44.1088 32.968C45.0048 32.648 45.7248 32.216 46.2688 31.672L49.3408 34.648ZM45.8848 22.84C45.5008 22.04 44.8928 21.448 44.0608 21.064C43.2288 20.648 42.3808 20.44 41.5168 20.44C40.5888 20.44 39.7248 20.616 38.9248 20.968C38.1568 21.32 37.4848 21.8 36.9088 22.408C36.3328 22.984 35.8688 23.656 35.5168 24.424C35.1968 25.192 35.0368 25.976 35.0368 26.776C35.0368 26.936 35.0368 27.048 35.0368 27.112C35.0688 27.176 35.0848 27.224 35.0848 27.256C35.9168 26.936 36.8128 26.584 37.7728 26.2C38.7648 25.784 39.7408 25.384 40.7008 25C41.6608 24.584 42.5888 24.2 43.4848 23.848C44.3808 23.464 45.1808 23.128 45.8848 22.84ZM62.1103 38.2C60.2223 34.616 58.4463 31.08 56.7823 27.592C55.1503 24.072 53.4223 20.52 51.5983 16.936H56.0623C57.2143 19.208 58.1263 21.064 58.7983 22.504C59.5023 23.944 60.0623 25.144 60.4783 26.104C60.8943 27.064 61.2143 27.88 61.4383 28.552C61.6623 29.192 61.8863 29.848 62.1103 30.52C62.3663 29.848 62.6063 29.192 62.8303 28.552C63.0863 27.88 63.4063 27.064 63.7903 26.104C64.2063 25.144 64.7503 23.944 65.4223 22.504C66.1263 21.064 67.0543 19.208 68.2063 16.936H72.6703C70.8463 20.52 69.0863 24.072 67.3903 27.592C65.6943 31.08 63.9343 34.616 62.1103 38.2ZM97.199 37C97.039 36.648 96.815 36.136 96.527 35.464C96.239 34.792 95.903 34.024 95.519 33.16C95.167 32.264 94.767 31.304 94.319 30.28C93.903 29.224 93.471 28.136 93.023 27.016H80.735L76.607 37H71.423L86.927 0.567997C87.119 1.016 87.455 1.832 87.935 3.016C88.447 4.2 89.039 5.624 89.711 7.288C90.415 8.92 91.183 10.744 92.015 12.76C92.879 14.744 93.743 16.76 94.607 18.808C95.503 20.856 96.367 22.872 97.199 24.856C98.063 26.84 98.847 28.664 99.551 30.328C100.255 31.992 100.847 33.416 101.327 34.6C101.839 35.752 102.191 36.552 102.383 37H97.199ZM82.559 22.6H91.247C90.799 21.544 90.367 20.536 89.951 19.576C89.567 18.584 89.199 17.688 88.847 16.888C88.527 16.056 88.239 15.336 87.983 14.728C87.727 14.12 87.535 13.64 87.407 13.288C87.375 13.224 87.295 13 87.167 12.616C87.071 12.232 86.991 11.88 86.927 11.56C86.863 11.88 86.767 12.232 86.639 12.616C86.511 13 86.431 13.224 86.399 13.288L82.559 22.6ZM116.373 21.688C115.477 21.688 114.613 21.816 113.781 22.072C112.949 22.296 112.197 22.648 111.525 23.128C110.885 23.608 110.373 24.216 109.989 24.952C109.605 25.656 109.413 26.472 109.413 27.4V37H105.333V16.936H108.933C108.997 17.928 109.045 18.84 109.077 19.672C109.141 20.472 109.205 21.272 109.269 22.072C109.685 21.208 110.229 20.424 110.901 19.72C111.573 19.016 112.293 18.424 113.061 17.944C113.829 17.464 114.581 17.096 115.317 16.84C116.053 16.552 116.709 16.408 117.285 16.408L116.373 21.688ZM120.239 16.936H123.839C123.903 17.928 123.951 18.84 123.983 19.672C124.047 20.472 124.111 21.272 124.175 22.072C124.911 20.344 125.871 18.984 127.055 17.992C128.271 16.968 129.887 16.44 131.903 16.408C133.855 16.408 135.423 16.904 136.607 17.896C137.791 18.888 138.479 20.184 138.671 21.784C139.471 20.152 140.447 18.856 141.599 17.896C142.783 16.936 144.367 16.44 146.351 16.408C148.431 16.408 150.063 16.968 151.247 18.088C152.463 19.208 153.103 20.648 153.167 22.408V37H149.039V24.28C148.975 23.256 148.623 22.392 147.983 21.688C147.375 20.952 146.367 20.552 144.959 20.488C143.039 20.488 141.535 21.112 140.447 22.36C139.359 23.576 138.783 25.144 138.719 27.064V37H134.639V24.28C134.575 23.256 134.207 22.392 133.535 21.688C132.895 20.952 131.903 20.552 130.559 20.488C129.599 20.488 128.735 20.664 127.967 21.016C127.199 21.336 126.543 21.784 125.999 22.36C125.455 22.936 125.039 23.624 124.751 24.424C124.463 25.224 124.319 26.104 124.319 27.064V37H120.239V16.936ZM163.916 46.648H159.788C160.236 45.72 160.652 44.824 161.036 43.96C161.452 43.128 161.852 42.264 162.236 41.368C162.652 40.504 163.068 39.592 163.484 38.632C163.9 37.704 164.364 36.696 164.876 35.608C164.14 34.168 163.388 32.664 162.62 31.096C161.852 29.496 161.084 27.896 160.316 26.296C159.548 24.696 158.78 23.096 158.012 21.496C157.276 19.896 156.54 18.376 155.804 16.936H160.268C161.42 19.208 162.364 21.128 163.1 22.696C163.868 24.264 164.492 25.624 164.972 26.776C165.484 27.896 165.884 28.856 166.172 29.656C166.492 30.456 166.764 31.192 166.988 31.864C167.244 31.192 167.516 30.456 167.804 29.656C168.124 28.856 168.524 27.896 169.004 26.776C169.516 25.624 170.14 24.264 170.876 22.696C171.644 21.128 172.604 19.208 173.756 16.936H178.22L163.916 46.648Z" fill="black"/>
</svg>
